<svg xmlns="http://www.w3.org/2000/svg" viewBox="0 0 500 500"><g id="freepik--Floor--inject-30"><path d="M460.13,460.53c0,.14-90.33.26-201.73.26s-201.74-.12-201.74-.26,90.31-.26,201.74-.26S460.13,460.39,460.13,460.53Z" style="fill:#263238"></path></g><g id="freepik--Pineapple--inject-30"><path d="M243.33,265.15c-27.18,7.84-65.3,26.28-70.87,68.63-8.4,63.85-10,149.55,84.75,147.32C352,483.33,350.37,397.63,342,333.78c-5.57-42.35-43.69-60.79-70.87-68.63" style="fill:#FFC100"></path><path d="M230.92,290.69a3.47,3.47,0,0,1,.16-.68c.13-.44.3-1.1.58-1.93a54.79,54.79,0,0,1,2.7-6.91,33.57,33.57,0,0,1,6.17-9.11,20.8,20.8,0,0,1,5.26-3.86,16.72,16.72,0,0,1,6.77-1.85,16.28,16.28,0,0,1,6.91,1.19,22.18,22.18,0,0,1,5.63,3.32,33.69,33.69,0,0,1,7.22,8.29,50.75,50.75,0,0,1,3.48,6.55c.36.8.61,1.43.78,1.86a3.41,3.41,0,0,1,.22.67,5.16,5.16,0,0,1-.32-.62c-.22-.47-.5-1.07-.86-1.82a58.93,58.93,0,0,0-3.61-6.44,34,34,0,0,0-7.21-8.11,21.75,21.75,0,0,0-5.52-3.22,15.81,15.81,0,0,0-6.7-1.15,16.33,16.33,0,0,0-6.56,1.78,20.63,20.63,0,0,0-5.15,3.75,34.14,34.14,0,0,0-6.18,8.93,65.14,65.14,0,0,0-2.84,6.81c-.3.82-.51,1.47-.67,1.9A2.92,2.92,0,0,1,230.92,290.69Z" style="fill:#263238"></path><path d="M281.36,289.51a13.05,13.05,0,0,1,.72-2.83,45.34,45.34,0,0,1,2.6-6.53,29.21,29.21,0,0,1,3.82-5.92,15.61,15.61,0,0,1,1.47-1.55,2.58,2.58,0,0,1,.61-.49c.06.06-.71.86-1.8,2.27a35.87,35.87,0,0,0-3.63,5.92,66.5,66.5,0,0,0-2.73,6.42A20.83,20.83,0,0,1,281.36,289.51Z" style="fill:#263238"></path><path d="M220.8,273.59a10.4,10.4,0,0,1,2.08,2.08,29.07,29.07,0,0,1,1.94,2.54c.66,1,1.33,2.14,2,3.36,1.33,2.43,2.38,4.7,3.1,6.37a13.8,13.8,0,0,1,1,2.75,21,21,0,0,1-1.34-2.6c-.79-1.62-1.9-3.86-3.22-6.27-.66-1.21-1.31-2.34-2-3.34s-1.27-1.86-1.82-2.58C221.5,274.47,220.75,273.64,220.8,273.59Z" style="fill:#263238"></path><path d="M199.86,313.87a3.43,3.43,0,0,1,.15-.73c.12-.48.28-1.19.55-2.09a54,54,0,0,1,2.66-7.46,30.81,30.81,0,0,1,6.59-9.73,20.33,20.33,0,0,1,5.78-3.9,16.69,16.69,0,0,1,7.3-1.67,17.08,17.08,0,0,1,7.28,1.74,24.24,24.24,0,0,1,5.76,4,31.74,31.74,0,0,1,4.2,4.7,34.13,34.13,0,0,1,2.91,4.66,66,66,0,0,1,3.25,7.22c.33.88.58,1.56.74,2a4.16,4.16,0,0,1,.21.72,3.92,3.92,0,0,1-.31-.68c-.21-.51-.48-1.17-.83-2a77.44,77.44,0,0,0-3.38-7.13,34.57,34.57,0,0,0-2.94-4.57,31,31,0,0,0-4.17-4.6,23.91,23.91,0,0,0-5.66-3.85,16.94,16.94,0,0,0-7.07-1.68,16.27,16.27,0,0,0-7.08,1.61,20.46,20.46,0,0,0-5.67,3.79,31.14,31.14,0,0,0-6.57,9.53,60,60,0,0,0-2.81,7.37c-.3.89-.49,1.59-.64,2.06A3.93,3.93,0,0,1,199.86,313.87Z" style="fill:#263238"></path><path d="M252.61,314.52a3.2,3.2,0,0,1,.15-.73c.13-.47.29-1.17.57-2.06a57.73,57.73,0,0,1,2.73-7.37,35.61,35.61,0,0,1,6.35-9.76,21.92,21.92,0,0,1,5.48-4.21,17,17,0,0,1,7.13-2.08,16.44,16.44,0,0,1,7.31,1.31,22.37,22.37,0,0,1,5.87,3.64,34.91,34.91,0,0,1,7.4,9,54,54,0,0,1,3.5,7c.35.86.61,1.53.77,2a5.12,5.12,0,0,1,.22.72,3.85,3.85,0,0,1-.32-.68c-.22-.49-.5-1.14-.85-1.95a63.17,63.17,0,0,0-3.63-6.92,35.47,35.47,0,0,0-7.39-8.82,22.17,22.17,0,0,0-5.77-3.54,16,16,0,0,0-7.08-1.26,16.55,16.55,0,0,0-6.92,2,21.51,21.51,0,0,0-5.37,4.1,36.35,36.35,0,0,0-6.37,9.58,67,67,0,0,0-2.87,7.27c-.3.88-.5,1.57-.66,2A6.17,6.17,0,0,1,252.61,314.52Z" style="fill:#263238"></path><path d="M302.42,313.29a4.28,4.28,0,0,1,.22-1.14c.17-.73.47-1.76.86-3a49.87,49.87,0,0,1,4.13-9.56,27.79,27.79,0,0,1,6.63-8,16.32,16.32,0,0,1,1.46-1.06,9,9,0,0,1,1.17-.7,4.18,4.18,0,0,1,1.05-.49c.05.09-1.43.83-3.44,2.54a29.94,29.94,0,0,0-6.42,8,59.78,59.78,0,0,0-4.23,9.42c-.44,1.24-.79,2.26-1,3A5.3,5.3,0,0,1,302.42,313.29Z" style="fill:#263238"></path><path d="M187.54,298.57a9.27,9.27,0,0,1,1.51,1.92,47.83,47.83,0,0,1,3,5.07,49.4,49.4,0,0,1,2.37,5.38,10.22,10.22,0,0,1,.69,2.35,13.59,13.59,0,0,1-1-2.21c-.6-1.37-1.45-3.25-2.5-5.28s-2.07-3.83-2.83-5.11A14.65,14.65,0,0,1,187.54,298.57Z" style="fill:#263238"></path><path d="M199.13,362.12a6.16,6.16,0,0,1,.15-.73c.12-.47.28-1.17.54-2.05a52.38,52.38,0,0,1,2.64-7.34,30.29,30.29,0,0,1,6.55-9.54,21.26,21.26,0,0,1,5.72-3.82,17.32,17.32,0,0,1,7.17-1.73,17.51,17.51,0,0,1,7.2,1.59,23.29,23.29,0,0,1,5.75,3.78,35.35,35.35,0,0,1,7.17,9.09,56.28,56.28,0,0,1,3.27,7.09c.33.86.57,1.53.72,2a3.11,3.11,0,0,1,.21.71,4.75,4.75,0,0,1-.3-.67l-.82-2a62.73,62.73,0,0,0-3.4-7,35.76,35.76,0,0,0-7.17-8.91,22.67,22.67,0,0,0-5.64-3.67,17.08,17.08,0,0,0-7-1.54,16.86,16.86,0,0,0-7,1.68,20.61,20.61,0,0,0-5.6,3.71,30.17,30.17,0,0,0-6.54,9.33A58.35,58.35,0,0,0,200,359.4c-.3.87-.48,1.56-.64,2A3.42,3.42,0,0,1,199.13,362.12Z" style="fill:#263238"></path><path d="M172,337.34a5.28,5.28,0,0,1,1.33.16,15.93,15.93,0,0,1,3.48,1.11,22,22,0,0,1,4.65,2.82,29.69,29.69,0,0,1,4.71,4.68,42.58,42.58,0,0,1,6.13,10.34c.58,1.43,1,2.6,1.27,3.42a7.48,7.48,0,0,1,.36,1.29,6.32,6.32,0,0,1-.55-1.22c-.33-.79-.79-1.94-1.42-3.34a46.37,46.37,0,0,0-6.19-10.16,26.86,26.86,0,0,0-9.11-7.49A28.67,28.67,0,0,0,172,337.34Z" style="fill:#263238"></path><path d="M173,337.52a4.87,4.87,0,0,1,.16-.71c.13-.46.3-1.15.58-2a50.49,50.49,0,0,1,2.75-7.18,30.46,30.46,0,0,1,6.59-9.31,20.38,20.38,0,0,1,5.64-3.74c.54-.24,1.11-.43,1.67-.65s1.16-.33,1.74-.51a16.25,16.25,0,0,1,3.7-.37,17.23,17.23,0,0,1,7.07,1.7,24.11,24.11,0,0,1,5.63,3.78,37,37,0,0,1,7.07,9,56,56,0,0,1,3.37,6.92c.33.84.58,1.5.74,1.95a5.12,5.12,0,0,1,.21.7,2.92,2.92,0,0,1-.31-.66l-.83-1.91a61.73,61.73,0,0,0-3.5-6.81,37.66,37.66,0,0,0-7.07-8.78,23.93,23.93,0,0,0-5.52-3.68,17,17,0,0,0-6.87-1.64,15.73,15.73,0,0,0-3.57.36c-.57.17-1.15.28-1.7.49s-1.09.39-1.62.63a19.76,19.76,0,0,0-5.53,3.62,30.7,30.7,0,0,0-6.58,9.12,57.7,57.7,0,0,0-2.89,7.08c-.31.85-.51,1.53-.67,2A3.47,3.47,0,0,1,173,337.52Z" style="fill:#263238"></path><path d="M277.86,338a4.51,4.51,0,0,1,.17-.73c.13-.47.3-1.16.58-2.05a54.69,54.69,0,0,1,2.81-7.32,42.29,42.29,0,0,1,2.65-4.74,29.46,29.46,0,0,1,4-4.79,20.31,20.31,0,0,1,5.73-3.86c.55-.23,1.13-.43,1.7-.66s1.18-.34,1.78-.5a16.33,16.33,0,0,1,3.77-.33,17,17,0,0,1,7.18,1.85,24.41,24.41,0,0,1,5.66,4,31,31,0,0,1,4.14,4.67,39.41,39.41,0,0,1,2.9,4.58,66.34,66.34,0,0,1,3.34,7.09c.35.86.6,1.54.76,2a4,4,0,0,1,.21.71,5.39,5.39,0,0,1-.31-.67c-.21-.5-.49-1.15-.84-2-.75-1.68-1.86-4.12-3.48-7a39.75,39.75,0,0,0-2.93-4.5,32,32,0,0,0-4.11-4.58,24.06,24.06,0,0,0-5.56-3.84,16.58,16.58,0,0,0-7-1.79,15.31,15.31,0,0,0-3.65.32c-.58.15-1.17.29-1.73.48s-1.11.41-1.65.64a20,20,0,0,0-5.61,3.74,28.83,28.83,0,0,0-4,4.69,40.12,40.12,0,0,0-2.67,4.65,59.49,59.49,0,0,0-2.95,7.23c-.32.87-.52,1.55-.68,2A4.15,4.15,0,0,1,277.86,338Z" style="fill:#263238"></path><path d="M224.05,337.29a3.78,3.78,0,0,1,.16-.71c.13-.45.3-1.14.59-2a48.36,48.36,0,0,1,2.81-7.13,28.64,28.64,0,0,1,6.77-9.12,20.65,20.65,0,0,1,5.75-3.53,16.2,16.2,0,0,1,7.13-1.28,17.2,17.2,0,0,1,7,1.93,24.15,24.15,0,0,1,5.52,3.89,30.61,30.61,0,0,1,4,4.56,32.4,32.4,0,0,1,2.83,4.5,68.19,68.19,0,0,1,3.17,7c.32.84.56,1.5.72,1.95a5.12,5.12,0,0,1,.21.7,3.59,3.59,0,0,1-.31-.66c-.21-.48-.48-1.12-.81-1.91-.72-1.66-1.76-4.06-3.31-6.88a33.28,33.28,0,0,0-2.84-4.42,31.18,31.18,0,0,0-4-4.46,24,24,0,0,0-5.41-3.79,16.92,16.92,0,0,0-6.79-1.87,15.88,15.88,0,0,0-6.91,1.23,20.25,20.25,0,0,0-5.63,3.43,28.76,28.76,0,0,0-6.75,8.92,53.85,53.85,0,0,0-2.95,7c-.31.85-.52,1.52-.68,2A3.17,3.17,0,0,1,224.05,337.29Z" style="fill:#263238"></path><path d="M252.81,362.5a3.62,3.62,0,0,1,.17-.72c.13-.46.3-1.16.6-2a49.88,49.88,0,0,1,2.88-7.24,33.07,33.07,0,0,1,6.7-9.41,20.57,20.57,0,0,1,5.67-3.86,16.21,16.21,0,0,1,7.19-1.58,17.16,17.16,0,0,1,7.16,1.73,24.2,24.2,0,0,1,5.67,3.86,31.92,31.92,0,0,1,4.16,4.6,34.22,34.22,0,0,1,2.9,4.55,67.48,67.48,0,0,1,3.23,7.09c.33.86.58,1.53.73,2a4.84,4.84,0,0,1,.22.71,3.57,3.57,0,0,1-.31-.67c-.21-.5-.49-1.14-.83-1.95-.73-1.68-1.79-4.12-3.37-7a32.64,32.64,0,0,0-2.92-4.47,31.74,31.74,0,0,0-4.13-4.5,23.57,23.57,0,0,0-5.57-3.76,16.73,16.73,0,0,0-6.95-1.67,15.76,15.76,0,0,0-7,1.52,20.45,20.45,0,0,0-5.55,3.75,33.24,33.24,0,0,0-6.7,9.23,56.08,56.08,0,0,0-3,7.14c-.32.86-.53,1.54-.69,2A3.39,3.39,0,0,1,252.81,362.5Z" style="fill:#263238"></path><path d="M303.06,362.5a2.08,2.08,0,0,1,.12-.57c.1-.38.24-.93.46-1.63a56.16,56.16,0,0,1,2.14-5.83,39.87,39.87,0,0,1,4.6-8,23.22,23.22,0,0,1,8.65-7.21,16.93,16.93,0,0,1,5.68-1.54,15.86,15.86,0,0,1,5.46.49,20.64,20.64,0,0,1,4.58,1.9,23.81,23.81,0,0,1,3.51,2.5,29.86,29.86,0,0,1,4.29,4.51c.45.58.76,1.06,1,1.37a2.74,2.74,0,0,1,.31.5,2.36,2.36,0,0,1-.4-.44c-.24-.29-.58-.75-1.05-1.31a33.93,33.93,0,0,0-4.36-4.35,25,25,0,0,0-3.49-2.4,20.87,20.87,0,0,0-4.49-1.82,15.72,15.72,0,0,0-5.3-.44,16.84,16.84,0,0,0-5.51,1.5,23.15,23.15,0,0,0-8.48,7,40.63,40.63,0,0,0-4.64,7.85c-1.08,2.38-1.8,4.37-2.29,5.74-.22.65-.4,1.18-.55,1.6A2.28,2.28,0,0,1,303.06,362.5Z" style="fill:#263238"></path><path d="M223.64,384.77a3.78,3.78,0,0,1,.16-.71c.13-.46.3-1.14.58-2a47.51,47.51,0,0,1,2.79-7.15,28.17,28.17,0,0,1,6.76-9.15,20.91,20.91,0,0,1,5.75-3.54,16.27,16.27,0,0,1,7.14-1.29,17.28,17.28,0,0,1,7,1.92,24.43,24.43,0,0,1,5.53,3.89,31.33,31.33,0,0,1,4,4.57,34.58,34.58,0,0,1,2.85,4.49,60.18,60.18,0,0,1,3.16,7c.33.85.56,1.51.71,2a3,3,0,0,1,.21.7,3.29,3.29,0,0,1-.3-.66c-.21-.49-.47-1.13-.8-1.92a69,69,0,0,0-3.31-6.89,34.63,34.63,0,0,0-2.87-4.41,30.15,30.15,0,0,0-4-4.47,23.9,23.9,0,0,0-5.43-3.79,16.75,16.75,0,0,0-6.79-1.86,15.76,15.76,0,0,0-6.92,1.25,20.31,20.31,0,0,0-5.64,3.43,28.21,28.21,0,0,0-6.74,8.94,53.84,53.84,0,0,0-2.93,7.05c-.31.85-.51,1.52-.67,2A3.14,3.14,0,0,1,223.64,384.77Z" style="fill:#263238"></path><path d="M171,385.79a3.76,3.76,0,0,1,.16-.72c.13-.47.3-1.16.59-2a50.22,50.22,0,0,1,2.8-7.27,31.69,31.69,0,0,1,6.6-9.47,20.18,20.18,0,0,1,5.67-3.85c.55-.25,1.12-.43,1.69-.66s1.17-.34,1.77-.51a15.47,15.47,0,0,1,3.74-.36,17.06,17.06,0,0,1,7.14,1.76,24.19,24.19,0,0,1,5.66,3.88,31.28,31.28,0,0,1,4.14,4.61,46.71,46.71,0,0,1,6.34,11.51c.33.86.56,1.53.71,2a3.49,3.49,0,0,1,.2.72,4,4,0,0,1-.3-.68c-.2-.49-.46-1.14-.8-1.95a50.92,50.92,0,0,0-3.48-6.92,39.72,39.72,0,0,0-7.13-8.92,23.57,23.57,0,0,0-5.56-3.78,16.66,16.66,0,0,0-6.93-1.7,16.11,16.11,0,0,0-3.62.34c-.58.17-1.16.29-1.72.5s-1.11.4-1.64.64a19.86,19.86,0,0,0-5.56,3.73,32,32,0,0,0-6.59,9.28,59.34,59.34,0,0,0-2.94,7.17c-.31.86-.52,1.54-.68,2A3.43,3.43,0,0,1,171,385.79Z" style="fill:#263238"></path><path d="M277.55,385a3.8,3.8,0,0,1,.16-.7c.13-.46.3-1.13.58-2a47.33,47.33,0,0,1,2.81-7.08,27.24,27.24,0,0,1,6.86-9,21.3,21.3,0,0,1,5.79-3.38,16.32,16.32,0,0,1,7.1-1.16,17.7,17.7,0,0,1,6.92,2,24.49,24.49,0,0,1,5.45,3.9,31.35,31.35,0,0,1,4,4.55,32.68,32.68,0,0,1,2.79,4.47,66.35,66.35,0,0,1,3.15,6.94c.32.84.56,1.49.71,1.94a3,3,0,0,1,.21.69,3.34,3.34,0,0,1-.3-.65c-.21-.49-.48-1.12-.81-1.91-.71-1.64-1.74-4-3.28-6.83a33.85,33.85,0,0,0-2.82-4.39,31.26,31.26,0,0,0-4-4.46,24.12,24.12,0,0,0-5.36-3.8,17.45,17.45,0,0,0-6.72-1.94,15.89,15.89,0,0,0-6.88,1.12,20.79,20.79,0,0,0-5.67,3.28,27.24,27.24,0,0,0-6.83,8.75,53.15,53.15,0,0,0-2.95,7c-.31.84-.51,1.5-.67,1.95A2.88,2.88,0,0,1,277.55,385Z" style="fill:#263238"></path><path d="M252.27,409.32a6.16,6.16,0,0,1,.15-.73c.12-.47.28-1.17.55-2.06a50.81,50.81,0,0,1,2.65-7.39,36.54,36.54,0,0,1,2.63-4.76,24.77,24.77,0,0,1,4.1-4.72,21.53,21.53,0,0,1,5.84-3.7l1.7-.63c.59-.19,1.19-.35,1.79-.5a16.42,16.42,0,0,1,3.78-.33,17.14,17.14,0,0,1,7.18,1.87,24.18,24.18,0,0,1,5.66,4,30.53,30.53,0,0,1,4.13,4.68,34.28,34.28,0,0,1,2.87,4.61,63.5,63.5,0,0,1,3.21,7.17c.33.86.57,1.54.73,2a4.24,4.24,0,0,1,.21.71,3.53,3.53,0,0,1-.31-.67c-.2-.5-.48-1.15-.82-2-.72-1.7-1.77-4.16-3.34-7.06a35.46,35.46,0,0,0-2.89-4.54,31.5,31.5,0,0,0-4.12-4.58,23.85,23.85,0,0,0-5.55-3.86,16.61,16.61,0,0,0-7-1.81,15.31,15.31,0,0,0-3.65.32c-.58.14-1.16.29-1.73.48l-1.67.61a21.33,21.33,0,0,0-5.73,3.59,24.94,24.94,0,0,0-4.05,4.6A36,36,0,0,0,256,399.3a56.06,56.06,0,0,0-2.8,7.29c-.3.87-.48,1.57-.64,2A3.42,3.42,0,0,1,252.27,409.32Z" style="fill:#263238"></path><path d="M199.73,410.48a4.09,4.09,0,0,1,.16-.74c.13-.48.3-1.19.58-2.09a57.53,57.53,0,0,1,2.77-7.49,33.87,33.87,0,0,1,6.51-9.88,20.09,20.09,0,0,1,5.71-4.1,16.1,16.1,0,0,1,7.35-1.68,17.05,17.05,0,0,1,7.33,1.8,24.2,24.2,0,0,1,5.77,4,30.57,30.57,0,0,1,4.2,4.76,38.79,38.79,0,0,1,3,4.66,55.47,55.47,0,0,1,3.31,7.27c.33.88.57,1.57.72,2a6.86,6.86,0,0,1,.21.73,3.85,3.85,0,0,1-.31-.69c-.2-.51-.47-1.17-.81-2a63.93,63.93,0,0,0-3.44-7.16,42.33,42.33,0,0,0-3-4.59,30.85,30.85,0,0,0-4.18-4.66,23.93,23.93,0,0,0-5.67-3.9A16.68,16.68,0,0,0,222.8,385a15.74,15.74,0,0,0-7.12,1.62,20.09,20.09,0,0,0-5.59,4,34.9,34.9,0,0,0-6.52,9.7,64.11,64.11,0,0,0-2.9,7.4c-.31.89-.52,1.59-.68,2.06A3.71,3.71,0,0,1,199.73,410.48Z" style="fill:#263238"></path><path d="M306.35,409a2,2,0,0,1,.11-.55l.42-1.53a58.51,58.51,0,0,1,2-5.52,35.86,35.86,0,0,1,4.28-7.57c.47-.68,1.05-1.29,1.6-1.95a23.73,23.73,0,0,1,1.91-1.83,22.66,22.66,0,0,1,2.17-1.67,21,21,0,0,1,2.46-1.37,17.37,17.37,0,0,1,5.3-1.67,15.88,15.88,0,0,1,5.17.17,19.56,19.56,0,0,1,7.9,3.62,27.68,27.68,0,0,1,4.29,4c.46.52.77,1,1,1.24s.33.45.31.46-.53-.55-1.46-1.56a30.34,30.34,0,0,0-4.36-3.84,19.63,19.63,0,0,0-7.77-3.45,15.49,15.49,0,0,0-5-.13,17,17,0,0,0-5.14,1.63,21.52,21.52,0,0,0-2.41,1.33,24.67,24.67,0,0,0-2.12,1.62c-.69.55-1.27,1.2-1.87,1.78s-1.12,1.25-1.59,1.91a36.56,36.56,0,0,0-4.32,7.43c-1,2.25-1.65,4.13-2.12,5.43l-.51,1.5A3.21,3.21,0,0,1,306.35,409Z" style="fill:#263238"></path><path d="M168.82,385.79s.13,0,.38,0a8.6,8.6,0,0,1,1.1,0,15.58,15.58,0,0,1,3.94.83,20.53,20.53,0,0,1,5.31,2.76,29.3,29.3,0,0,1,5.33,5,34.36,34.36,0,0,1,2.27,3.05c.67,1,1.26,2.05,1.79,3,1.06,2,1.9,3.82,2.57,5.38s1.16,2.84,1.48,3.74a7.88,7.88,0,0,1,.44,1.4,7.52,7.52,0,0,1-.63-1.33c-.37-.87-.91-2.12-1.62-3.66s-1.59-3.34-2.66-5.3c-.54-1-1.13-2-1.79-3a37.1,37.1,0,0,0-2.25-3,29.81,29.81,0,0,0-5.21-5,21.78,21.78,0,0,0-5.15-2.81A23.81,23.81,0,0,0,168.82,385.79Z" style="fill:#263238"></path><path d="M282.19,432.05a3.33,3.33,0,0,1,.17-.7c.12-.46.3-1.13.59-2a48.81,48.81,0,0,1,2.87-7.06,31.1,31.1,0,0,1,2.74-4.51,22.93,22.93,0,0,1,4.17-4.41,20.41,20.41,0,0,1,5.84-3.3,15.66,15.66,0,0,1,7.14-.94,18.43,18.43,0,0,1,6.87,2.2,25,25,0,0,1,5.37,4,35.26,35.26,0,0,1,6.67,9.12,66.55,66.55,0,0,1,3.09,7c.32.84.55,1.49.7,1.94a5.12,5.12,0,0,1,.21.7,3.7,3.7,0,0,1-.3-.66c-.21-.48-.47-1.12-.8-1.91-.7-1.65-1.71-4-3.23-6.86a35.23,35.23,0,0,0-6.68-9,20.63,20.63,0,0,0-11.95-6,15.24,15.24,0,0,0-6.91.9,20,20,0,0,0-5.72,3.19,22.77,22.77,0,0,0-4.12,4.3,31.5,31.5,0,0,0-2.77,4.42,54.7,54.7,0,0,0-3,7c-.31.84-.52,1.5-.68,1.95A3.47,3.47,0,0,1,282.19,432.05Z" style="fill:#263238"></path><path d="M229.53,432.41a6.86,6.86,0,0,1,.17-.69c.14-.45.32-1.12.61-2a48.43,48.43,0,0,1,2.9-7,29.34,29.34,0,0,1,6.74-9,20.31,20.31,0,0,1,5.66-3.5,16.08,16.08,0,0,1,7-1.22,17.37,17.37,0,0,1,6.9,1.9,24.78,24.78,0,0,1,5.45,3.82,31.14,31.14,0,0,1,4,4.48c1.13,1.5,2.08,3,2.92,4.34a42.79,42.79,0,0,1,3.3,6.8c.32.84.54,1.49.68,1.94a2.89,2.89,0,0,1,.19.69,5.3,5.3,0,0,1-.29-.65c-.19-.48-.45-1.11-.77-1.9a46.57,46.57,0,0,0-3.43-6.69,41.11,41.11,0,0,0-6.94-8.66,24.29,24.29,0,0,0-5.36-3.71,16.84,16.84,0,0,0-6.7-1.84,15.6,15.6,0,0,0-6.82,1.18,19.79,19.79,0,0,0-5.54,3.39,29.55,29.55,0,0,0-6.73,8.76,54.3,54.3,0,0,0-3,6.88c-.32.83-.53,1.49-.7,1.93A3.15,3.15,0,0,1,229.53,432.41Z" style="fill:#263238"></path><path d="M335.81,432.62a7.72,7.72,0,0,1,.49-2.13,42.17,42.17,0,0,1,1.83-4.93,32.38,32.38,0,0,1,2.51-4.63,7.39,7.39,0,0,1,1.35-1.71c.12.08-1.76,2.81-3.38,6.55S336,432.67,335.81,432.62Z" style="fill:#263238"></path><path d="M176.48,433.16a4.7,4.7,0,0,1,.16-.69c.12-.45.29-1.11.55-2a52.53,52.53,0,0,1,2.59-7,25,25,0,0,1,6.46-8.95,20,20,0,0,1,5.66-3.31,16.35,16.35,0,0,1,7-1.13,17.67,17.67,0,0,1,6.78,1.92,24.48,24.48,0,0,1,5.38,3.77,30.83,30.83,0,0,1,4,4.4,34.76,34.76,0,0,1,2.82,4.32,56.79,56.79,0,0,1,3.13,6.76c.32.82.55,1.47.7,1.9a5.55,5.55,0,0,1,.21.68,3.29,3.29,0,0,1-.31-.64l-.79-1.86a64.33,64.33,0,0,0-3.26-6.65,35.32,35.32,0,0,0-2.84-4.25,32.63,32.63,0,0,0-4-4.31,24.22,24.22,0,0,0-5.29-3.66,17.36,17.36,0,0,0-6.58-1.86,15.82,15.82,0,0,0-6.74,1.09,19.33,19.33,0,0,0-5.54,3.2,25.37,25.37,0,0,0-6.44,8.74,60.35,60.35,0,0,0-2.73,6.89c-.26.79-.48,1.43-.64,1.92A3.56,3.56,0,0,1,176.48,433.16Z" style="fill:#263238"></path><path d="M258.77,457.38a3.31,3.31,0,0,1,.15-.73c.12-.48.28-1.19.55-2.09a53.07,53.07,0,0,1,2.66-7.46,30.7,30.7,0,0,1,6.59-9.73,20.57,20.57,0,0,1,5.78-3.91,16.82,16.82,0,0,1,7.3-1.66,17.08,17.08,0,0,1,7.28,1.74,24.24,24.24,0,0,1,5.76,3.95,31.25,31.25,0,0,1,4.2,4.7,34.67,34.67,0,0,1,2.91,4.65,66.84,66.84,0,0,1,3.25,7.23c.34.88.58,1.56.74,2a3.89,3.89,0,0,1,.21.72,4.37,4.37,0,0,1-.31-.69l-.83-2a77.44,77.44,0,0,0-3.38-7.13,34.57,34.57,0,0,0-2.94-4.57,31,31,0,0,0-4.17-4.6,23.91,23.91,0,0,0-5.66-3.85,16.79,16.79,0,0,0-7.07-1.68,16.27,16.27,0,0,0-7.08,1.61,20,20,0,0,0-5.66,3.79,30.9,30.9,0,0,0-6.58,9.53,61.65,61.65,0,0,0-2.81,7.37c-.3.89-.49,1.59-.64,2.05A3.89,3.89,0,0,1,258.77,457.38Z" style="fill:#263238"></path><path d="M206.25,458a3.45,3.45,0,0,1,.15-.75c.12-.48.29-1.19.56-2.1a55.12,55.12,0,0,1,2.69-7.52,33.21,33.21,0,0,1,6.5-9.91,21,21,0,0,1,5.73-4.09,17,17,0,0,1,7.32-1.82,17.47,17.47,0,0,1,7.37,1.68,23.91,23.91,0,0,1,5.83,3.95,31.3,31.3,0,0,1,4.25,4.73,45.82,45.82,0,0,1,3,4.63,51.89,51.89,0,0,1,3.4,7.24c.34.88.58,1.57.73,2a6.86,6.86,0,0,1,.21.73,3.85,3.85,0,0,1-.31-.69c-.2-.51-.48-1.17-.82-2a57,57,0,0,0-3.53-7.12,46.44,46.44,0,0,0-3-4.56,31.65,31.65,0,0,0-4.22-4.64,24,24,0,0,0-5.72-3.84,17,17,0,0,0-7.15-1.62,16.56,16.56,0,0,0-7.11,1.76,20.93,20.93,0,0,0-5.61,4,33.66,33.66,0,0,0-6.51,9.72,67.06,67.06,0,0,0-2.83,7.43c-.3.9-.49,1.6-.65,2.07A6.79,6.79,0,0,1,206.25,458Z" style="fill:#263238"></path><path d="M312.68,457.38a10.28,10.28,0,0,1,.35-1.47c.26-.94.67-2.3,1.27-3.94A39.75,39.75,0,0,1,320.89,440a22.21,22.21,0,0,1,5.71-4.91,12.93,12.93,0,0,1,1.51-.8,9.79,9.79,0,0,1,1.47-.62,14.22,14.22,0,0,1,2.77-.81,14.65,14.65,0,0,1,4.15-.18c.48,0,.86.11,1.11.16a1.87,1.87,0,0,1,.38.11,13,13,0,0,1-1.51-.07,16.13,16.13,0,0,0-4.06.34,14.45,14.45,0,0,0-2.68.85,9.44,9.44,0,0,0-1.43.63,12.34,12.34,0,0,0-1.46.8,22.86,22.86,0,0,0-5.57,4.84,42.74,42.74,0,0,0-6.63,11.72c-.64,1.62-1.1,2.95-1.43,3.87A7.3,7.3,0,0,1,312.68,457.38Z" style="fill:#263238"></path><path d="M176.48,433.16s.13,0,.37,0a9,9,0,0,1,1,.1,17.27,17.27,0,0,1,3.68,1,22.21,22.21,0,0,1,5,2.73,29.54,29.54,0,0,1,5,4.73,41.71,41.71,0,0,1,6.31,10.82c.63,1.48,1.08,2.69,1.38,3.54a7,7,0,0,1,.41,1.33,7.41,7.41,0,0,1-.6-1.26c-.35-.82-.86-2-1.52-3.46A45.81,45.81,0,0,0,191.17,442a30.72,30.72,0,0,0-4.93-4.69,23.75,23.75,0,0,0-4.82-2.76A26.67,26.67,0,0,0,176.48,433.16Z" style="fill:#263238"></path><path d="M286.4,478.51a1.3,1.3,0,0,1,.09-.46c.11-.35.23-.78.37-1.29a48.09,48.09,0,0,1,1.73-4.61,35.27,35.27,0,0,1,3.55-6.38,23.42,23.42,0,0,1,6.45-6.22,19.36,19.36,0,0,1,8.46-2.92,16.27,16.27,0,0,1,7.22,1.17,19.55,19.55,0,0,1,4.31,2.39,13,13,0,0,1,1.06.83,2.12,2.12,0,0,1,.34.32,16.54,16.54,0,0,1-1.51-1,22.55,22.55,0,0,0-4.33-2.22,16.33,16.33,0,0,0-7.05-1,19.15,19.15,0,0,0-8.22,2.89,23.43,23.43,0,0,0-6.34,6.05,37.1,37.1,0,0,0-3.61,6.25c-.87,1.88-1.45,3.45-1.86,4.53-.19.49-.34.91-.47,1.25A1.88,1.88,0,0,1,286.4,478.51Z" style="fill:#263238"></path><path d="M233.74,479.62a3.18,3.18,0,0,1,.17-.69c.13-.44.31-1.1.6-1.93a47,47,0,0,1,2.87-6.85,29.45,29.45,0,0,1,6.63-8.8,20.63,20.63,0,0,1,5.55-3.47,16,16,0,0,1,6.91-1.29,17,17,0,0,1,6.81,1.72,23.85,23.85,0,0,1,5.44,3.65,36.44,36.44,0,0,1,6.92,8.58,51,51,0,0,1,3.34,6.64c.33.81.57,1.45.73,1.89a2.93,2.93,0,0,1,.2.67,3.91,3.91,0,0,1-.3-.63l-.82-1.85a56.87,56.87,0,0,0-3.47-6.53,37.51,37.51,0,0,0-6.92-8.41,23.46,23.46,0,0,0-5.33-3.55,16.76,16.76,0,0,0-6.62-1.66,15.64,15.64,0,0,0-6.69,1.24,20,20,0,0,0-5.43,3.37,29.47,29.47,0,0,0-6.62,8.6,54.28,54.28,0,0,0-3,6.75c-.32.82-.53,1.46-.69,1.89A3.52,3.52,0,0,1,233.74,479.62Z" style="fill:#263238"></path><path d="M192.92,460.06s.1-.11.34-.26a11.29,11.29,0,0,1,1.06-.62,18.6,18.6,0,0,1,4.22-1.61,15.28,15.28,0,0,1,6.7-.07,19.34,19.34,0,0,1,7.47,3.37,28.94,28.94,0,0,1,5.9,5.7,34.49,34.49,0,0,1,3.62,5.63c.88,1.69,1.5,3.1,1.91,4.08a9.75,9.75,0,0,1,.57,1.55,10.46,10.46,0,0,1-.76-1.47c-.46-.95-1.13-2.33-2-4a36.93,36.93,0,0,0-3.67-5.5,29.66,29.66,0,0,0-5.83-5.58,19.37,19.37,0,0,0-7.27-3.32,15.4,15.4,0,0,0-6.52,0,21,21,0,0,0-4.21,1.43C193.45,459.8,192.94,460.09,192.92,460.06Z" style="fill:#263238"></path><g style="opacity:0.2"><path d="M235.43,271.76a30.28,30.28,0,0,0-12.38,22.88l1.1,11.81c.51,2.14,3.15,3.28,5.27,2.7a7.45,7.45,0,0,0,4.56-4.47,33.07,33.07,0,0,0,1.62-6.39,44.16,44.16,0,0,1,25.47-31A30.29,30.29,0,0,0,235.43,271.76Z"></path></g><path d="M264.06,271.25c25.59-18.95,51.81-47.21,70.65-72.88-17,3.19-32.78,11.82-46,23s-24.19,24.89-34,39.21Z" style="fill:#455a64"></path><g style="opacity:0.2"><path d="M264.06,271.25c25.59-18.95,51.81-47.21,70.65-72.88-17,3.19-32.78,11.82-46,23s-24.19,24.89-34,39.21Z"></path></g><path d="M215.66,265.52A77.42,77.42,0,0,0,171,287.23c-1.85-9,2-18.59,8.48-25.14s18.41-14.76,33.39-14.76c0,0,24,12.08,23.5,12.08S215.66,265.52,215.66,265.52Z" style="fill:#455a64"></path><g style="opacity:0.2"><path d="M215.66,265.52A77.42,77.42,0,0,0,171,287.23c-1.85-9,2-18.59,8.48-25.14s18.41-14.76,33.39-14.76c0,0,24,12.08,23.5,12.08S215.66,265.52,215.66,265.52Z"></path></g><path d="M257.53,204.8c-2.22-7.62-1.1-31.89-15.47-54.12-11.35-17.54-12.05-22-26.4-36.81-6.31-6.5-17.4-15.92-24.59-18.77-2-.8-4.61-1.21-6.21.28-2.52,2.36-.23,6.48,2,9.12,17.86,21.23,33.47,68.52,38.33,95.83l16.88,28.18,15.47-9.14Z" style="fill:#455a64"></path><g style="opacity:0.2"><path d="M257.53,204.8c-2.22-7.62-1.1-31.89-15.47-54.12-11.35-17.54-12.05-22-26.4-36.81-6.31-6.5-17.4-15.92-24.59-18.77-2-.8-4.61-1.21-6.21.28-2.52,2.36-.23,6.48,2,9.12,17.86,21.23,33.47,68.52,38.33,95.83l16.88,28.18,15.47-9.14Z"></path></g><path d="M289.81,187.73A891.9,891.9,0,0,1,334.22,84.06c1-1.9,2-3.92,1.87-6s-1.7-4.38-3.83-4.35c-1.65,0-6.88,3.21-12.69,8.57-13.33,12.32-38.61,46.25-52.19,81,0,0,.36,58.84,0,59.12S289.81,187.73,289.81,187.73Z" style="fill:#455a64"></path><g style="opacity:0.2"><path d="M289.81,187.73A891.9,891.9,0,0,1,334.22,84.06c1-1.9,2-3.92,1.87-6s-1.7-4.38-3.83-4.35c-1.65,0-6.88,3.21-12.69,8.57-13.33,12.32-38.61,46.25-52.19,81,0,0,.36,58.84,0,59.12S289.81,187.73,289.81,187.73Z"></path></g><path d="M276.9,153.07c8.93-26.42,10.12-81,.74-107.31-13.75,11.78-17.71,31.17-20,49.14-1.06,8.52-4.47,47.15-5.13,55.71l10.11,29Z" style="fill:#455a64"></path><g style="opacity:0.2"><path d="M276.9,153.07c8.93-26.42,10.12-81,.74-107.31-13.75,11.78-17.71,31.17-20,49.14-1.06,8.52-4.47,47.15-5.13,55.71l10.11,29Z"></path></g><path d="M263.5,270.64c-6.13-5.25-16.08-3.18-22,2.34s-8.72,13.46-11.35,21.09-5.46,15.58-11.35,21.09A33.19,33.19,0,1,1,262.24,265Z" style="fill:#455a64"></path><path d="M242.22,255.91c-6.42-13-18.75-22.35-32.1-28S182.3,219.71,168,217.31c-1.91-.33-4.3-.46-5.35,1.17-1.46,2.26,1.19,4.88,3.5,6.26,18.29,10.89,45,27.3,63.24,38.19l14.78-.73-1.93-6.29" style="fill:#455a64"></path><path d="M260.59,255.79c-4.38-18.34-32-47.39-51.84-59.38-16.14-9.77-38-13.1-38-6.69,4.26,3,9,5.78,13.84,8.67a128.25,128.25,0,0,1,45.77,46.39l7.79,13.54Z" style="fill:#455a64"></path><path d="M263.5,269c17.86-22.93,36.71-49.08,50.51-72.72,2.66-4.55,5.68-9.42,10.6-11.33,5.54-2.16,6.81-1.89,12.32.36l41.73,17c-1.71-11.41-11.87-19.44-21.61-25.62-8.36-5.3-17.49-10.31-27.38-10.39-7.89-.06-15.55,3.08-22,7.56s-12,10.28-17.26,16.12c-18,19.84-35.34,41.87-41,68.07l5.33,5.77Z" style="fill:#455a64"></path><path d="M257.09,268.52a19.68,19.68,0,0,0,19.74,1c7.78-4,15.26-9.32,23-15,1.73-1.27,3.37-3,5.51-3,2.71.06,4.63,2.56,6.12,4.82l16,24.13a60.28,60.28,0,0,0-5.12-30c-2.05-4.52-5-9.07-9.65-10.8-4.32-1.61-9.12-.43-13.53.87A254.5,254.5,0,0,0,258,256.69l-6.57,8.2Z" style="fill:#455a64"></path><path d="M262.66,159.38q-8.07-26.16-16.13-52.32C242.81,95,239,82.78,232.42,72c-5.74-9.35-13.92-17.62-24-21.8a3.12,3.12,0,0,0-4.16,3.88c1.14,3.25,3.5,6.31,5.55,9.18,15.27,21.33,27.58,102.05,29.59,128.2l15.66,16.33Z" style="fill:#455a64"></path><path d="M213,192.37a237,237,0,0,0-56.63-49.51c-1.62-1-3.46-3.06-2.21-4.5.77-.88,2.16-.72,3.29-.47a154.53,154.53,0,0,1,66.19,32.47c6.43,5.39,14.22,14.66,19.92,22,0,0,13.16,17.76,17.64,29.74s3.67,25.15,3.67,25.15-12.57,5.37-12.64,5.56S229,212.06,229,212.06Z" style="fill:#455a64"></path><path d="M272.5,207.42a238.17,238.17,0,0,1,19.34-66.93c1-2.26,2.2-4.62,4.31-5.93a13.22,13.22,0,0,1,5.87-1.48c8.19-.74,25.54,6.48,28.59,3.38,0-2.64-21.13-12.12-24.57-13.28-6.94-2.34-14.73-3.86-21.37-.79s-10.58,9.72-13.95,16.12a314.15,314.15,0,0,0-28.66,77.77v10.4s16.87,26.09,16.87,25,17.29-34.59,17.29-34.59Z" style="fill:#455a64"></path><g style="opacity:0.2"><path d="M272.5,207.42c-2,.76-26.41,33.46-19.95,51.46a104.87,104.87,0,0,1,20.85-49.13Z"></path></g><path d="M310.25,202.51a5.3,5.3,0,0,1-.32.65L309,205c-.88,1.57-2.18,3.82-3.89,6.55-3.37,5.48-8.3,12.86-13.95,20.88s-10.92,15.16-14.76,20.31l-4.58,6.08-1.26,1.64a5,5,0,0,1-.47.55,3.83,3.83,0,0,1,.38-.62l1.19-1.69,4.44-6.18c3.77-5.2,9-12.38,14.63-20.39s10.62-15.36,14.07-20.77c1.74-2.7,3.09-4.92,4-6.46l1.07-1.77A3.27,3.27,0,0,1,310.25,202.51Z" style="fill:#263238"></path><path d="M245.24,223.36a3.26,3.26,0,0,1,0-.72c0-.51.11-1.19.19-2,.18-1.77.48-4.32,1-7.47A252.12,252.12,0,0,1,258.6,165c1.09-3,2-5.38,2.72-7l.8-1.89a4.25,4.25,0,0,1,.31-.64,3.64,3.64,0,0,1-.21.68l-.71,1.92c-.64,1.66-1.51,4.08-2.57,7.08-2.09,6-4.75,14.37-7.11,23.78s-4,18-5.05,24.3c-.52,3.13-.87,5.68-1.12,7.44-.12.84-.21,1.51-.29,2A3.72,3.72,0,0,1,245.24,223.36Z" style="fill:#263238"></path><path d="M255.45,242.05a11.83,11.83,0,0,1-1-1.51c-.59-1-1.47-2.42-2.59-4.15a100.82,100.82,0,0,0-9.84-12.73,99.72,99.72,0,0,0-11.78-10.95c-1.61-1.28-2.95-2.29-3.89-3a12.21,12.21,0,0,1-1.42-1.1,1.76,1.76,0,0,1,.41.22l1.13.72c1,.62,2.35,1.58,4,2.82a88.56,88.56,0,0,1,21.7,23.79c1.09,1.76,1.92,3.21,2.45,4.24l.61,1.18A1.78,1.78,0,0,1,255.45,242.05Z" style="fill:#263238"></path><path d="M252,256.52a7.84,7.84,0,0,1-1-1.08c-.64-.72-1.59-1.74-2.78-3A89.94,89.94,0,0,0,227,236.13c-1.5-.83-2.74-1.49-3.59-1.92a8.19,8.19,0,0,1-1.31-.73,7.17,7.17,0,0,1,1.39.55c.89.38,2.15,1,3.68,1.78a78.4,78.4,0,0,1,21.32,16.4c1.16,1.28,2.07,2.34,2.66,3.1A8.36,8.36,0,0,1,252,256.52Z" style="fill:#263238"></path><path d="M249.85,258.1a17.29,17.29,0,0,1-2-.42,36.23,36.23,0,0,0-5.49-.73,34,34,0,0,0-31,15.87,36,36,0,0,0-2.62,4.89c-.52,1.2-.78,1.88-.82,1.87a1.86,1.86,0,0,1,.14-.52c.11-.32.24-.82.5-1.43a30.3,30.3,0,0,1,2.49-5,33.46,33.46,0,0,1,31.3-16.05,31.83,31.83,0,0,1,5.52.9c.64.15,1.12.33,1.46.43A2.32,2.32,0,0,1,249.85,258.1Z" style="fill:#263238"></path><path d="M249.36,199.68a19,19,0,0,1-1.81-2.16l-4.3-5.27c-1.69-2.05-3.2-3.92-4.26-5.31a14.76,14.76,0,0,1-1.6-2.33,16.4,16.4,0,0,1,1.89,2.1c1.13,1.32,2.68,3.16,4.37,5.21s3.18,4,4.19,5.38A12.52,12.52,0,0,1,249.36,199.68Z" style="fill:#263238"></path><path d="M251.47,385.85a1.86,1.86,0,0,1-.69-.19,9,9,0,0,1-1.69-.92,10,10,0,0,1-3.77-5.08c0-.19-.11-.38-.16-.56l.5,0a15.32,15.32,0,0,1-3,5.12,6.56,6.56,0,0,1-1.83,1.61c0-.06.63-.68,1.55-1.84a17.19,17.19,0,0,0,2.79-5.06l.27-.78.23.8c.05.17.1.35.16.53a10.38,10.38,0,0,0,3.49,4.94C250.56,385.42,251.51,385.76,251.47,385.85Z" style="fill:#263238"></path><path d="M200.91,388.52a1.84,1.84,0,0,1-.68-.19,9,9,0,0,1-1.69-.92,10,10,0,0,1-3.77-5.08l-.16-.57.49,0a15.22,15.22,0,0,1-3,5.13,6.68,6.68,0,0,1-1.82,1.61c-.05-.06.63-.68,1.55-1.84a17.12,17.12,0,0,0,2.79-5.07l.27-.77.23.79.15.54a10.56,10.56,0,0,0,3.49,4.94C200,388.08,201,388.43,200.91,388.52Z" style="fill:#263238"></path><path d="M227.9,363.25a1.8,1.8,0,0,1-.68-.19,8.22,8.22,0,0,1-1.7-.92,10,10,0,0,1-3.76-5.08c-.06-.19-.11-.38-.17-.56l.5,0a15.49,15.49,0,0,1-3,5.13,6.85,6.85,0,0,1-1.82,1.6c-.06-.06.63-.67,1.55-1.83a17.62,17.62,0,0,0,2.79-5.07l.27-.77.23.79.15.53a10.51,10.51,0,0,0,3.49,4.94C227,362.82,227.94,363.16,227.9,363.25Z" style="fill:#263238"></path><path d="M207,434.68s-.26,0-.68-.19a8,8,0,0,1-1.7-.92,10,10,0,0,1-3.76-5.07l-.17-.57.5,0a15.38,15.38,0,0,1-3,5.13,7.3,7.3,0,0,1-1.82,1.61c-.06-.06.62-.68,1.55-1.84a17.62,17.62,0,0,0,2.79-5.07l.26-.77.24.79q.08.26.15.54a10.41,10.41,0,0,0,3.49,4.93C206.06,434.25,207,434.6,207,434.68Z" style="fill:#263238"></path><path d="M254.62,339a1.84,1.84,0,0,1-.68-.19,7.94,7.94,0,0,1-1.69-.92,10,10,0,0,1-3.77-5.08c-.06-.19-.11-.38-.16-.56l.49,0a15.16,15.16,0,0,1-3,5.12A6.46,6.46,0,0,1,244,339c0-.06.63-.67,1.55-1.84a17.19,17.19,0,0,0,2.79-5.06l.27-.78.23.8c.05.17.1.35.16.53a10.43,10.43,0,0,0,3.48,4.94C253.71,338.61,254.66,339,254.62,339Z" style="fill:#263238"></path><path d="M230.11,317.35a1.86,1.86,0,0,1-.69-.19,9,9,0,0,1-1.69-.92,10,10,0,0,1-3.77-5.08l-.16-.56.5,0a15.16,15.16,0,0,1-3,5.12,6.46,6.46,0,0,1-1.82,1.61c-.05-.06.63-.68,1.55-1.84a17.19,17.19,0,0,0,2.79-5.06l.27-.78.23.8c0,.17.1.35.16.53a10.38,10.38,0,0,0,3.49,4.94C229.2,316.92,230.14,317.26,230.11,317.35Z" style="fill:#263238"></path><path d="M281.48,314.3s-.25,0-.68-.18a8.88,8.88,0,0,1-1.7-.93,10,10,0,0,1-3.76-5.07c-.06-.19-.11-.39-.17-.57l.5,0a15.38,15.38,0,0,1-3,5.13,7,7,0,0,1-1.82,1.61c-.06-.06.63-.68,1.55-1.84a17.35,17.35,0,0,0,2.79-5.07l.27-.77.23.79c.05.17.1.36.15.54a10.56,10.56,0,0,0,3.49,4.94C280.57,313.87,281.52,314.22,281.48,314.3Z" style="fill:#263238"></path><path d="M256.9,290.81a1.8,1.8,0,0,1-.68-.19,9,9,0,0,1-1.7-.92,10,10,0,0,1-3.76-5.08l-.17-.57.5,0a15.38,15.38,0,0,1-3,5.13,7,7,0,0,1-1.82,1.61c-.06-.06.63-.68,1.55-1.84a17.35,17.35,0,0,0,2.79-5.07l.27-.77.23.79.15.54a10.56,10.56,0,0,0,3.49,4.94C256,290.37,256.94,290.72,256.9,290.81Z" style="fill:#263238"></path><path d="M281.92,362.93a1.86,1.86,0,0,1-.69-.19,9,9,0,0,1-1.69-.92,10,10,0,0,1-3.77-5.08l-.16-.56.5,0a15.32,15.32,0,0,1-3,5.12,6.56,6.56,0,0,1-1.83,1.61c0-.06.63-.68,1.55-1.84a17.19,17.19,0,0,0,2.79-5.06l.27-.78.23.8c.05.17.1.35.16.53a10.38,10.38,0,0,0,3.49,4.94C281,362.5,282,362.84,281.92,362.93Z" style="fill:#263238"></path><path d="M308.38,385.73a1.7,1.7,0,0,1-.69-.18,8.57,8.57,0,0,1-1.69-.93,10,10,0,0,1-3.77-5.07l-.16-.57.5,0a15.22,15.22,0,0,1-3,5.13,6.68,6.68,0,0,1-1.82,1.61c-.05-.06.63-.68,1.55-1.84a17.12,17.12,0,0,0,2.79-5.07l.27-.77.23.79c.05.17.1.36.16.54a10.43,10.43,0,0,0,3.49,4.94C307.47,385.3,308.41,385.65,308.38,385.73Z" style="fill:#263238"></path><path d="M335.53,408.44s-.26,0-.69-.18a8.57,8.57,0,0,1-1.69-.93,10,10,0,0,1-3.77-5.07c-.06-.2-.11-.39-.16-.57l.49,0a15.22,15.22,0,0,1-3,5.13,6.92,6.92,0,0,1-1.82,1.61c-.05-.06.63-.68,1.55-1.84a17.25,17.25,0,0,0,2.79-5.07l.27-.77.23.79.16.54a10.43,10.43,0,0,0,3.49,4.94C334.61,408,335.56,408.36,335.53,408.44Z" style="fill:#263238"></path><path d="M312,432.35a1.65,1.65,0,0,1-.68-.18,8.33,8.33,0,0,1-1.7-.93,10,10,0,0,1-3.77-5.07c-.05-.2-.11-.39-.16-.57l.5,0a15.38,15.38,0,0,1-3,5.13,7.3,7.3,0,0,1-1.82,1.61c-.06-.06.62-.68,1.54-1.84a17.25,17.25,0,0,0,2.8-5.07l.26-.77.23.79.16.54a10.43,10.43,0,0,0,3.49,4.94C311.09,431.92,312,432.27,312,432.35Z" style="fill:#263238"></path><path d="M334,366.23a1.8,1.8,0,0,1-.68-.19,7.74,7.74,0,0,1-1.7-.92,10,10,0,0,1-3.77-5.07c-.05-.2-.11-.39-.16-.57l.5,0a15.38,15.38,0,0,1-3,5.13,7.3,7.3,0,0,1-1.82,1.61c-.06-.06.62-.68,1.54-1.84a17.38,17.38,0,0,0,2.8-5.07l.26-.77.23.79.16.54a10.34,10.34,0,0,0,3.49,4.93C333.13,365.8,334.08,366.14,334,366.23Z" style="fill:#263238"></path><path d="M280.83,410.88a1.86,1.86,0,0,1-.69-.19,7.94,7.94,0,0,1-1.69-.92,10,10,0,0,1-3.77-5.08l-.16-.56.5,0a15.32,15.32,0,0,1-3,5.12,6.56,6.56,0,0,1-1.83,1.61c-.05-.06.63-.67,1.55-1.83a17.38,17.38,0,0,0,2.8-5.07l.26-.77.23.79c.05.17.11.35.16.53a10.38,10.38,0,0,0,3.49,4.94C279.92,410.45,280.87,410.79,280.83,410.88Z" style="fill:#263238"></path><path d="M230.76,408.44s-.25,0-.68-.18a8.88,8.88,0,0,1-1.7-.93,10,10,0,0,1-3.76-5.07c-.06-.2-.11-.39-.17-.57l.5,0a15.22,15.22,0,0,1-3,5.13,6.92,6.92,0,0,1-1.82,1.61c-.05-.06.63-.68,1.55-1.84a17.49,17.49,0,0,0,2.79-5.07l.27-.77.23.79.15.54A10.56,10.56,0,0,0,228.6,407C229.85,408,230.8,408.36,230.76,408.44Z" style="fill:#263238"></path><path d="M235.86,455.31a1.84,1.84,0,0,1-.68-.19,9,9,0,0,1-1.69-.92,10,10,0,0,1-3.77-5.08l-.16-.57.49,0a15.22,15.22,0,0,1-3,5.13,6.68,6.68,0,0,1-1.82,1.61c-.05-.06.63-.68,1.55-1.84a17.12,17.12,0,0,0,2.79-5.07l.27-.77.23.79.16.54a10.48,10.48,0,0,0,3.48,4.94C235,454.87,235.9,455.22,235.86,455.31Z" style="fill:#263238"></path><path d="M260.06,431.27a1.84,1.84,0,0,1-.68-.19,7.94,7.94,0,0,1-1.69-.92,10,10,0,0,1-3.77-5.07c-.06-.2-.11-.39-.16-.57l.49,0a15.32,15.32,0,0,1-3,5.13,6.51,6.51,0,0,1-1.82,1.6c0-.06.63-.67,1.55-1.83a17.39,17.39,0,0,0,2.79-5.07l.27-.77.23.79q.08.25.15.54a10.53,10.53,0,0,0,3.49,4.93C259.15,430.84,260.1,431.18,260.06,431.27Z" style="fill:#263238"></path><path d="M286.37,455.68s-.25,0-.68-.18a8.88,8.88,0,0,1-1.7-.93,10,10,0,0,1-3.76-5.07c-.06-.2-.11-.39-.17-.57l.5,0a15.22,15.22,0,0,1-3,5.13,6.68,6.68,0,0,1-1.82,1.61c-.05-.06.63-.68,1.55-1.84a17.35,17.35,0,0,0,2.79-5.07l.27-.77.23.79.15.54a10.56,10.56,0,0,0,3.49,4.94C285.46,455.25,286.41,455.6,286.37,455.68Z" style="fill:#263238"></path><path d="M202.39,339a1.82,1.82,0,0,1-.69-.19,7.94,7.94,0,0,1-1.69-.92,10,10,0,0,1-3.77-5.08c-.06-.19-.11-.38-.16-.56l.49,0a15.16,15.16,0,0,1-3,5.12,6.46,6.46,0,0,1-1.82,1.61c-.05-.06.63-.67,1.55-1.84a17.19,17.19,0,0,0,2.79-5.06l.27-.78.23.8.16.53a10.38,10.38,0,0,0,3.49,4.94C201.47,338.61,202.42,339,202.39,339Z" style="fill:#263238"></path><path d="M260.48,475.75s-.26,0-.69-.19a7.94,7.94,0,0,1-1.69-.92,10,10,0,0,1-3.77-5.07c-.05-.2-.11-.39-.16-.57l.5,0a15.38,15.38,0,0,1-3,5.13,7,7,0,0,1-1.83,1.61c-.05-.06.63-.68,1.55-1.84a17.62,17.62,0,0,0,2.8-5.07l.26-.77.23.79.16.54a10.34,10.34,0,0,0,3.49,4.93C259.57,475.32,260.52,475.66,260.48,475.75Z" style="fill:#263238"></path><path d="M309.7,338.88s-.25,0-.68-.18a8.88,8.88,0,0,1-1.7-.93,10,10,0,0,1-3.76-5.07c-.06-.2-.11-.39-.17-.57l.5,0a15.38,15.38,0,0,1-3,5.13,7.3,7.3,0,0,1-1.82,1.61c-.06-.06.63-.68,1.55-1.84A17.49,17.49,0,0,0,303.4,332l.27-.77.23.79.15.54a10.56,10.56,0,0,0,3.49,4.94C308.79,338.45,309.74,338.8,309.7,338.88Z" style="fill:#263238"></path><path d="M339.05,324.67a1.86,1.86,0,0,1-.69-.19,9,9,0,0,1-1.69-.92,10,10,0,0,1-3.77-5.08c0-.19-.11-.39-.16-.57l.49,0a15.05,15.05,0,0,1-3,5.13,6.46,6.46,0,0,1-1.82,1.61c0-.06.63-.68,1.55-1.84a17.12,17.12,0,0,0,2.79-5.07L333,317l.23.8c.05.17.1.35.16.53a10.38,10.38,0,0,0,3.49,4.94C338.14,324.23,339.08,324.58,339.05,324.67Z" style="fill:#263238"></path><g style="opacity:0.2"><path d="M342,333.78a69.73,69.73,0,0,0-7.43-23.67A73.78,73.78,0,0,1,337,321.39c8.4,63.86,10,149.55-84.75,147.32-41.88,1-64.94-15.2-76.91-39.08,9.93,30.47,33.18,52.62,82,51.47C352,483.33,350.41,397.63,342,333.78Z"></path></g><g style="opacity:0.2"><path d="M239.63,392.22c-6.23-8.91-14-13.09-21.89-10.51C208,384.87,202.6,395.94,200.3,408l-.11.45,0,.05c3-10.54,7.83-19.69,17.57-22.85,7.93-2.58,16.35,1.44,22.62,10.32a58,58,0,0,1,6.5,13.2C244.94,404,243.4,397.61,239.63,392.22Z"></path></g><g style="opacity:0.2"><path d="M291.86,392c-6.23-8.91-14-13.1-21.9-10.52-9.74,3.17-15.13,14.24-17.43,26.33l-.12.45v.05c3-10.53,7.82-19.68,17.56-22.85,7.94-2.58,16.36,1.45,22.63,10.32a58.06,58.06,0,0,1,6.5,13.21C297.17,403.72,295.62,397.33,291.86,392Z"></path></g><g style="opacity:0.2"><path d="M298.57,439.13c-6.23-8.91-14-13.09-21.89-10.51-9.74,3.16-15.14,14.23-17.44,26.33l-.11.45v.05c3-10.54,7.82-19.68,17.56-22.85C284.61,430,293,434,299.3,442.92a58,58,0,0,1,6.5,13.2C303.88,450.9,302.34,444.52,298.57,439.13Z"></path></g><g style="opacity:0.2"><path d="M246.11,439.2c-6.23-8.9-14-13.09-21.89-10.51-9.74,3.16-15.14,14.24-17.44,26.33l-.11.45,0,0c3-10.54,7.83-19.68,17.57-22.85,7.93-2.58,16.35,1.44,22.62,10.32a58.18,58.18,0,0,1,6.5,13.2C251.42,451,249.88,444.59,246.11,439.2Z"></path></g><g style="opacity:0.2"><path d="M292.71,345.11c-6.23-8.91-14-13.1-21.89-10.52-9.75,3.17-15.14,14.24-17.44,26.34l-.11.44,0,.05c3-10.53,7.82-19.68,17.57-22.84,7.93-2.58,16.35,1.44,22.62,10.32a57.76,57.76,0,0,1,6.5,13.2C298,356.88,296.48,350.5,292.71,345.11Z"></path></g><g style="opacity:0.2"><path d="M239,344.26c-6.23-8.91-14-13.1-21.89-10.52-9.74,3.17-15.14,14.24-17.44,26.34l-.11.44,0,.05c3-10.53,7.83-19.68,17.57-22.84,7.93-2.58,16.35,1.44,22.62,10.32a57.76,57.76,0,0,1,6.5,13.2C244.31,356,242.77,349.65,239,344.26Z"></path></g><g style="opacity:0.2"><path d="M292.91,296c-6.22-8.91-14-13.1-21.89-10.52-9.74,3.17-15.14,14.24-17.44,26.34l-.11.44v.05c3-10.53,7.82-19.68,17.56-22.84,7.94-2.58,16.36,1.44,22.63,10.32a58.18,58.18,0,0,1,6.5,13.2C298.22,307.76,296.68,301.38,292.91,296Z"></path></g><g style="opacity:0.2"><path d="M229,211.48s21.19,5.94,29,26.09l-1.77,5.15s-17.84-26.2-27.19-31.24"></path></g><g style="opacity:0.2"><path d="M239.34,187.08s9.29,6,10.31,9l-.94,2.64Z"></path></g><path d="M303.26,133.44a20.32,20.32,0,0,1-3.11.27c-1.92.12-4.58.3-7.5.57s-5.56.59-7.47.83a22.56,22.56,0,0,1-3.11.32,15.88,15.88,0,0,1,3.05-.68c1.91-.33,4.55-.71,7.48-1s5.6-.39,7.53-.41A17.73,17.73,0,0,1,303.26,133.44Z" style="fill:#263238"></path><path d="M315.7,181.86a15.84,15.84,0,0,1,3.05.09c1.89.14,4.48.42,7.32.89s5.39,1,7.22,1.48a14.73,14.73,0,0,1,2.92.89,21.19,21.19,0,0,1-3-.53c-1.84-.37-4.39-.87-7.22-1.33s-5.41-.8-7.27-1A19,19,0,0,1,315.7,181.86Z" style="fill:#263238"></path><path d="M241.38,263.13a13.17,13.17,0,0,1-1.69.26,27.66,27.66,0,0,0-4.5,1.09,26.09,26.09,0,0,0-17.66,27.28,16.83,16.83,0,0,1,.15,1.7,1.42,1.42,0,0,1-.12-.43c-.06-.28-.17-.7-.24-1.25a23.36,23.36,0,0,1-.2-4.68,25.25,25.25,0,0,1,18-23,22.94,22.94,0,0,1,4.59-.94,11.43,11.43,0,0,1,1.27-.07A1.35,1.35,0,0,1,241.38,263.13Z" style="fill:#263238"></path><path d="M281.24,228.11a9.52,9.52,0,0,1-1,1.29c-.68.8-1.65,2-2.82,3.45a135.6,135.6,0,0,0-15.78,24.74c-.83,1.69-1.49,3.06-1.94,4a8.85,8.85,0,0,1-.74,1.46,10.87,10.87,0,0,1,.56-1.54c.39-1,1-2.38,1.79-4.09a115.13,115.13,0,0,1,7.11-12.92,114,114,0,0,1,8.71-11.89c1.22-1.45,2.23-2.59,3-3.35A8.88,8.88,0,0,1,281.24,228.11Z" style="fill:#263238"></path><path d="M265.16,177.72c.14,0-2.51,13.45-5.92,30s-6.28,29.88-6.42,29.85,2.5-13.44,5.91-30S265,177.7,265.16,177.72Z" style="fill:#263238"></path><path d="M247.54,210.68a7.57,7.57,0,0,1-1.07-1.07l-2.79-3c-2.36-2.53-5.67-6-9.47-9.66s-7.36-6.86-10-9.14l-3.1-2.68a9.38,9.38,0,0,1-1.11-1,7.69,7.69,0,0,1,1.24.87c.77.58,1.87,1.46,3.21,2.56,2.68,2.21,6.29,5.36,10.11,9s7.08,7.18,9.38,9.79c1.14,1.3,2.06,2.37,2.67,3.12A8.45,8.45,0,0,1,247.54,210.68Z" style="fill:#263238"></path><path d="M209.72,347.49a49.14,49.14,0,0,0-4.92,6.56,47.21,47.21,0,0,0-3.24,7.55,8.25,8.25,0,0,1,.46-2.39,25.31,25.31,0,0,1,2.32-5.42,24.62,24.62,0,0,1,3.54-4.7A8.17,8.17,0,0,1,209.72,347.49Z" style="fill:#fff"></path><path d="M181.52,371.8a33.42,33.42,0,0,0-4,5.1,33,33,0,0,0-2.41,6,5.51,5.51,0,0,1,.23-1.92,16.18,16.18,0,0,1,4.63-8A5.72,5.72,0,0,1,181.52,371.8Z" style="fill:#fff"></path><path d="M241.19,364.53c0,.08-1.1.49-2.77,1.45a22.39,22.39,0,0,0-9.65,11.12c-.71,1.79-1,3-1.05,2.95a2.43,2.43,0,0,1,.1-.84,14.16,14.16,0,0,1,.6-2.23,20.51,20.51,0,0,1,9.82-11.32,13.82,13.82,0,0,1,2.13-.92C240.89,364.57,241.18,364.49,241.19,364.53Z" style="fill:#fff"></path><path d="M236.06,324.22c0,.07-.48.46-1.33,1.06a28.21,28.21,0,0,0-3.17,2.49,11.78,11.78,0,0,0-2.44,3.15c-.47.91-.63,1.54-.71,1.52a3.27,3.27,0,0,1,.38-1.67,9.88,9.88,0,0,1,2.41-3.38,18.76,18.76,0,0,1,3.33-2.42A5.38,5.38,0,0,1,236.06,324.22Z" style="fill:#fff"></path><path d="M182.79,325.29c.09.13-1.63,1.35-3.26,3.33s-2.52,3.88-2.67,3.81a12.43,12.43,0,0,1,5.93-7.14Z" style="fill:#fff"></path><path d="M266,349.81a19.64,19.64,0,0,0-9,10.47,6,6,0,0,1,.54-2,15.24,15.24,0,0,1,6.56-7.6A6.08,6.08,0,0,1,266,349.81Z" style="fill:#fff"></path><path d="M210.18,396.72a14.53,14.53,0,0,0-5.45,8.32,9.5,9.5,0,0,1,5.45-8.32Z" style="fill:#fff"></path><path d="M273.18,293.84c0,.09-.94.4-2.38,1.12a21.82,21.82,0,0,0-5.15,3.6,22.06,22.06,0,0,0-3.88,4.94c-.79,1.41-1.16,2.36-1.24,2.32a8,8,0,0,1,.92-2.49,18.48,18.48,0,0,1,3.84-5.15,18.74,18.74,0,0,1,5.35-3.55A8.47,8.47,0,0,1,273.18,293.84Z" style="fill:#fff"></path></g></svg>
